<?xml version="1.0" encoding="iso-8859-1"?>
<!-- Generator: Adobe Illustrator 19.0.0, SVG Export Plug-In . SVG Version: 6.00 Build 0)  -->
<svg version="1.1" id="Capa_1" xmlns="http://www.w3.org/2000/svg" xmlns:xlink="http://www.w3.org/1999/xlink" x="0px" y="0px"
	 viewBox="0 0 512 512" style="enable-background:new 0 0 512 512;" xml:space="preserve">
<path style="fill:#8CFFF3;" d="M400.41,143.41c-8.787-8.787-23.033-8.787-31.82,0L206.502,305.498
	c-14.645,14.645-38.388,14.645-53.033,0s-14.645-38.388,0-53.033L331.467,74.467c29.289-29.289,76.777-29.289,106.066,0l31.82-31.82
	c-46.863-46.863-122.843-46.863-169.706,0L121.65,220.645c-32.218,32.218-32.218,84.454,0,116.673s84.454,32.218,116.673,0
	L400.41,175.23C409.197,166.443,409.197,152.197,400.41,143.41z"/>
<path style="fill:#9F9F9F;" d="M469.353,42.647l-37.123-5.303l5.303,37.123c29.289,29.289,29.289,76.777,0,106.066l-257,257
	c-29.289,29.289-76.777,29.289-106.066,0l-37.123-5.303l5.303,37.123c46.863,46.863,122.843,46.863,169.706,0l257-257
	C516.216,165.49,516.216,89.51,469.353,42.647z"/>
<path style="fill:#BFBFBF;" d="M74.467,331.467l79.002-79.002l-31.82-31.82l-79.002,79.002c-46.863,46.863-46.863,122.843,0,169.706
	l31.82-31.82C45.178,408.244,45.178,360.756,74.467,331.467z"/>
<path style="fill:#DBDBDB;" d="M400.41,143.41c-8.787-8.787-23.033-8.787-31.82,0L206.502,305.498
	c-14.645,14.645-38.388,14.645-53.033,0s-14.645-38.388,0-53.033L331.467,74.467c29.289-29.289,76.777-29.289,106.066,0l31.82-31.82
	c-46.863-46.863-122.843-46.863-169.706,0L121.65,220.645c-32.218,32.218-32.218,84.454,0,116.673s84.454,32.218,116.673,0
	L400.41,175.23C409.197,166.443,409.197,152.197,400.41,143.41z"/>
<path d="M474.656,37.345C450.574,13.263,418.557,0,384.5,0s-66.074,13.263-90.156,37.344L116.347,215.341
	c-23.508,23.509-31.268,56.891-23.279,86.919l-23.903,23.903C53.582,341.745,45,362.463,45,384.5s8.582,42.755,24.164,58.337
	c32.166,32.166,84.505,32.166,116.672,0l257-257c32.166-32.167,32.166-84.506-0.001-116.674c-32.166-32.166-84.505-32.166-116.673,0
	L148.166,247.161c-8.5,8.5-13.18,19.8-13.18,31.819c0,12.021,4.681,23.32,13.18,31.819c8.5,8.5,19.8,13.182,31.82,13.182
	s23.321-4.682,31.82-13.181l162.088-162.087c5.848-5.849,15.365-5.849,21.213-0.001c5.849,5.849,5.849,15.365,0,21.213
	L233.019,332.014c-29.242,29.243-76.823,29.242-106.066,0c-29.242-29.242-29.242-76.823,0-106.065L304.951,47.95
	C326.199,26.702,354.45,15,384.5,15s58.301,11.702,79.55,32.951C485.298,69.199,497,97.45,497,127.5s-11.702,58.301-32.951,79.549
	l-256.999,257C185.801,485.298,157.55,497,127.5,497s-58.301-11.702-79.55-32.951C26.702,442.801,15,414.55,15,384.5
	s11.702-58.301,32.951-79.549l24.981-24.981c2.929-2.93,2.929-7.678,0-10.607c-2.929-2.928-7.678-2.928-10.606,0l-24.981,24.981
	C13.262,318.426,0,350.443,0,384.5s13.262,66.074,37.344,90.156C61.426,498.737,93.444,512,127.5,512s66.074-13.263,90.156-37.344
	l256.999-257C498.737,193.574,512,161.557,512,127.5S498.737,61.426,474.656,37.345z M116.347,342.621
	c35.091,35.09,92.188,35.09,127.279,0l162.088-162.088c11.695-11.696,11.696-30.729,0-42.427c-11.697-11.697-30.73-11.697-42.428,0
	L201.199,300.194c-5.667,5.666-13.2,8.787-21.213,8.787s-15.547-3.121-21.213-8.788c-11.697-11.696-11.697-30.729,0-42.425
	L336.771,79.771c26.316-26.317,69.141-26.317,95.459-0.001c26.318,26.319,26.318,69.143,0,95.46l-257,257
	c-26.318,26.318-69.141,26.318-95.459,0C67.021,419.48,60,402.53,60,384.5s7.021-34.98,19.771-47.729l18.998-18.999
	C103.053,326.763,108.913,335.187,116.347,342.621z"/>
<g>
</g>
<g>
</g>
<g>
</g>
<g>
</g>
<g>
</g>
<g>
</g>
<g>
</g>
<g>
</g>
<g>
</g>
<g>
</g>
<g>
</g>
<g>
</g>
<g>
</g>
<g>
</g>
<g>
</g>
</svg>
